<?xml version="1.0" standalone="no"?>
<!DOCTYPE svg PUBLIC "-//W3C//DTD SVG 20010904//EN"
 "http://www.w3.org/TR/2001/REC-SVG-20010904/DTD/svg10.dtd">
<svg version="1.0" xmlns="http://www.w3.org/2000/svg"
 width="428.000000pt" height="428.000000pt" viewBox="0 0 428.000000 428.000000"
 preserveAspectRatio="xMidYMid meet">
<g transform="translate(0.000000,428.000000) scale(0.100000,-0.100000)"
fill="#000000" stroke="none">
<path d="M572 4173 c3 -86 8 -117 26 -149 41 -79 141 -142 252 -160 l40 -7 0
-151 c1 -83 5 -261 10 -396 8 -231 10 -251 39 -347 103 -341 278 -571 574
-753 48 -29 87 -57 87 -61 0 -5 -24 -21 -52 -35 -153 -77 -338 -239 -440 -384
-56 -79 -128 -220 -162 -315 -53 -148 -57 -180 -67 -565 -5 -201 -12 -370 -14
-377 -2 -7 -29 -19 -60 -28 -62 -18 -150 -75 -188 -120 -52 -63 -71 -114 -75
-205 l-4 -87 558 -6 c308 -4 1015 -10 1572 -13 l1012 -7 0 64 c0 90 -20 158
-65 219 -59 81 -122 119 -237 144 l-26 6 -5 392 c-4 388 -4 394 -30 483 -100
344 -273 578 -564 760 -53 34 -98 66 -100 71 -2 5 25 25 59 43 292 158 505
418 606 741 41 129 43 155 56 553 l11 349 71 27 c171 67 254 180 254 347 l0
63 -357 3 c-197 2 -904 5 -1572 6 l-1213 2 4 -107z m2371 1 l657 -7 0 -21 c0
-12 -13 -43 -29 -68 -52 -82 -133 -128 -225 -128 -91 0 -86 10 -86 -175 l0
-162 -427 3 c-236 2 -742 7 -1125 10 l-698 6 0 163 c0 187 7 175 -100 175
-152 0 -240 80 -231 209 1 14 297 14 2264 -5z m-228 -670 l551 -6 -3 -157 c-4
-196 -17 -290 -54 -404 -53 -163 -118 -276 -231 -404 -106 -120 -195 -185
-383 -280 -93 -47 -179 -90 -189 -95 -17 -9 4 -23 140 -92 198 -101 260 -143
368 -252 202 -202 310 -446 321 -724 3 -69 7 -167 9 -218 l4 -93 -66 3 -66 3
-36 95 c-44 116 -89 192 -174 292 -129 152 -318 288 -573 414 -171 85 -211 95
-281 69 -107 -41 -334 -158 -433 -225 -122 -81 -278 -219 -342 -301 -50 -66
-106 -170 -133 -249 -26 -78 -28 -80 -100 -80 l-63 0 5 117 c10 255 14 301 34
377 53 199 145 362 289 509 106 110 206 177 395 267 80 39 146 74 146 80 0 5
-56 36 -125 69 -301 143 -487 316 -606 566 -88 184 -119 339 -119 597 l0 137
583 -4 c320 -3 830 -8 1132 -11z m-257 -2831 l782 -6 2 -166 3 -166 80 -5 c44
-3 91 -12 105 -20 75 -40 123 -100 136 -165 l7 -38 -814 7 c-2066 16 -2109 17
-2109 38 0 48 75 143 142 179 12 7 61 15 108 18 l85 6 3 163 2 162 344 0 c188
0 694 -3 1124 -7z"/>
<path d="M1376 2798 c4 -7 27 -38 50 -69 90 -118 208 -204 375 -275 285 -121
633 -69 890 132 54 43 189 189 189 204 0 14 -263 20 -877 20 -505 0 -633 -3
-627 -12z"/>
</g>
</svg>
